<svg width="130" height="80" viewBox="0 0 130 80" fill="none" xmlns="http://www.w3.org/2000/svg">
<path d="M40.727 31.3333C32.3872 47.629 24.1454 63.7286 15.8954 79.8528H0C13.5675 53.2569 27.0778 26.7754 40.7106 0.0488281C54.3435 26.7917 67.8456 53.2733 81.3886 79.8446H65.5912C57.3494 63.7695 49.0994 47.6616 40.727 31.3251V31.3333Z" fill="white"/>
<path d="M66.3103 29.1362C63.7699 24.1617 61.3358 19.4078 58.918 14.6702C68.8097 2.09109 87.6784 -4.19847 105.15 3.09579C123.251 10.6596 132.841 29.7407 128.985 48.1519C125.04 66.9798 108.516 79.0607 92.1791 79.7713C89.7613 75.0419 87.3272 70.2716 84.8114 65.3461C92.8816 66.6449 100.037 64.9377 106.229 59.8162C110.991 55.8791 113.939 50.7985 115.14 44.7131C117.452 32.959 111.072 20.9925 99.8818 16.2467C93.5351 13.5512 87.0576 13.4205 80.6129 15.871C74.1681 18.3214 69.4959 22.7731 66.3103 29.128V29.1362Z" fill="white"/>
</svg>
