<svg width="45" height="44" viewBox="0 0 45 44" fill="none" xmlns="http://www.w3.org/2000/svg">
<path d="M14.0108 26.0645L11.8481 28.2191C11.1472 27.09 10.6189 25.8463 10.304 24.5182H13.3729C13.2826 24.2345 13.2224 23.94 13.1539 23.6509H0.938477C1.35734 28.1018 3.12587 32.1682 5.84163 35.4327L14.4844 26.8227C14.3229 26.5718 14.1504 26.3318 14.0108 26.0645Z" fill="#F7941E"/>
<path d="M14.0108 26.0645L11.8481 28.2191C11.1472 27.09 10.6189 25.8463 10.304 24.5182H13.3729C13.2826 24.2345 13.2224 23.94 13.1539 23.6509H0.938477C1.35734 28.1018 3.12587 32.1682 5.84163 35.4327L14.4844 26.8227C14.3229 26.5718 14.1504 26.3318 14.0108 26.0645Z" fill="url(#paint0_linear_2591_163)"/>
<path d="M19.6998 33.8809C18.3665 33.5645 17.1182 33.0409 15.9848 32.3427L18.1475 30.1881C17.882 30.049 17.6383 29.8772 17.3865 29.7163L8.74365 38.3263C12.0206 41.029 16.1025 42.7909 20.5704 43.2109V31.0445C20.2774 30.9763 19.9818 30.9163 19.6998 30.8263V33.8809Z" fill="#F7941E"/>
<path d="M19.6998 33.8809C18.3665 33.5645 17.1182 33.0409 15.9848 32.3427L18.1475 30.1881C17.882 30.049 17.6383 29.8772 17.3865 29.7163L8.74365 38.3263C12.0206 41.029 16.1025 42.7909 20.5704 43.2109V31.0445C20.2774 30.9763 19.9818 30.9163 19.6998 30.8263V33.8809Z" fill="url(#paint1_linear_2591_163)"/>
<path d="M27.1053 30.1854L29.268 32.34C28.1346 33.0382 26.8835 33.5645 25.5503 33.8809V30.8236C25.2655 30.9136 24.9699 30.9736 24.6797 31.0418V43.2082C29.1476 42.7909 33.2294 41.0264 36.5064 38.3236L27.8636 29.7136C27.6145 29.8773 27.3708 30.0491 27.1053 30.1854Z" fill="#F7941E"/>
<path d="M27.1053 30.1854L29.268 32.34C28.1346 33.0382 26.8835 33.5645 25.5503 33.8809V30.8236C25.2655 30.9136 24.9699 30.9736 24.6797 31.0418V43.2082C29.1476 42.7909 33.2294 41.0264 36.5064 38.3236L27.8636 29.7136C27.6145 29.8773 27.3708 30.0491 27.1053 30.1854Z" fill="url(#paint2_linear_2591_163)"/>
<path d="M17.3889 13.4945C17.6408 13.3336 17.8817 13.1618 18.15 13.0227L15.9872 10.8682C17.1206 10.17 18.369 9.64636 19.7022 9.33V12.3845C19.9869 12.2945 20.2826 12.2345 20.5728 12.1664V0C16.1049 0.417273 12.0231 2.17909 8.74609 4.88455L17.3889 13.4945Z" fill="#F7941E"/>
<path d="M17.3889 13.4945C17.6408 13.3336 17.8817 13.1618 18.15 13.0227L15.9872 10.8682C17.1206 10.17 18.369 9.64636 19.7022 9.33V12.3845C19.9869 12.2945 20.2826 12.2345 20.5728 12.1664V0C16.1049 0.417273 12.0231 2.17909 8.74609 4.88455L17.3889 13.4945Z" fill="url(#paint3_linear_2591_163)"/>
<path d="M13.3702 18.6899H10.3013C10.6189 17.3618 11.1445 16.1181 11.8481 14.9863L14.0108 17.1408C14.1504 16.8763 14.3229 16.6336 14.4844 16.3854L5.84163 7.77539C3.12861 11.0399 1.36008 15.1063 0.938477 19.5572H13.1512C13.2196 19.2681 13.2799 18.9736 13.3702 18.6899Z" fill="#F7941E"/>
<path d="M13.3702 18.6899H10.3013C10.6189 17.3618 11.1445 16.1181 11.8481 14.9863L14.0108 17.1408C14.1504 16.8763 14.3229 16.6336 14.4844 16.3854L5.84163 7.77539C3.12861 11.0399 1.36008 15.1063 0.938477 19.5572H13.1512C13.2196 19.2681 13.2799 18.9736 13.3702 18.6899Z" fill="url(#paint4_linear_2591_163)"/>
<path d="M31.8823 24.5208H34.9485C34.6309 25.849 34.1053 27.0927 33.4044 28.2217L31.2417 26.0672C31.1021 26.3317 30.9296 26.5745 30.7681 26.8254L39.4109 35.4354C42.1239 32.1708 43.8924 28.1045 44.314 23.6536H32.1013C32.0301 23.9427 31.9699 24.2372 31.8823 24.5208Z" fill="#F7941E"/>
<path d="M31.8823 24.5208H34.9485C34.6309 25.849 34.1053 27.0927 33.4044 28.2217L31.2417 26.0672C31.1021 26.3317 30.9296 26.5745 30.7681 26.8254L39.4109 35.4354C42.1239 32.1708 43.8924 28.1045 44.314 23.6536H32.1013C32.0301 23.9427 31.9699 24.2372 31.8823 24.5208Z" fill="url(#paint5_linear_2591_163)"/>
<path d="M31.2417 17.1436L33.4044 14.989C34.1053 16.1181 34.6336 17.3618 34.9485 18.6899H31.8823C31.9726 18.9736 32.0329 19.2681 32.1013 19.5572H44.314C43.8952 15.1063 42.1266 11.0399 39.4109 7.77539L30.7681 16.3854C30.9296 16.6363 31.1021 16.879 31.2417 17.1436Z" fill="#F7941E"/>
<path d="M31.2417 17.1436L33.4044 14.989C34.1053 16.1181 34.6336 17.3618 34.9485 18.6899H31.8823C31.9726 18.9736 32.0329 19.2681 32.1013 19.5572H44.314C43.8952 15.1063 42.1266 11.0399 39.4109 7.77539L30.7681 16.3854C30.9296 16.6363 31.1021 16.879 31.2417 17.1436Z" fill="url(#paint6_linear_2591_163)"/>
<path d="M25.5503 9.33C26.8835 9.64636 28.1319 10.17 29.2653 10.8682L27.1025 13.0227C27.3681 13.1618 27.6117 13.3336 27.8636 13.4945L36.5064 4.88455C33.2294 2.17909 29.1476 0.417273 24.6797 0V12.1664C24.9726 12.2345 25.2683 12.2945 25.5503 12.3845V9.33Z" fill="#F7941E"/>
<path d="M25.5503 9.33C26.8835 9.64636 28.1319 10.17 29.2653 10.8682L27.1025 13.0227C27.3681 13.1618 27.6117 13.3336 27.8636 13.4945L36.5064 4.88455C33.2294 2.17909 29.1476 0.417273 24.6797 0V12.1664C24.9726 12.2345 25.2683 12.2945 25.5503 12.3845V9.33Z" fill="url(#paint7_linear_2591_163)"/>
<path d="M26.634 24.9054C26.4287 25.1508 26.1933 25.3826 25.9387 25.5954C25.0079 26.3644 23.8307 26.7872 22.6261 26.7872C21.4188 26.7872 20.2416 26.3644 19.3135 25.5954C19.0617 25.3854 18.8262 25.1535 18.6182 24.9026C17.8489 23.9754 17.4245 22.8026 17.4245 21.5999C17.4245 20.3972 17.8489 19.2244 18.6182 18.2972C18.8262 18.049 19.0589 17.8144 19.3108 17.6044C21.041 16.1781 23.6582 16.0472 25.5226 17.2963C25.6649 17.3917 25.8045 17.4953 25.9359 17.6072C26.207 17.8308 26.4342 18.0572 26.634 18.2944L26.8229 18.5235L27.9426 17.4108L27.7811 17.2199C27.5484 16.9472 27.2911 16.6908 27.0228 16.4617C25.8018 15.4199 24.2386 14.8472 22.6261 14.8472C18.8892 14.8472 15.8477 17.8772 15.8477 21.5999C15.8477 25.3226 18.8892 28.3526 22.6261 28.3526C24.2386 28.3526 25.7991 27.7799 27.0228 26.7381C27.2911 26.5063 27.5457 26.2526 27.7811 25.9799L27.9426 25.7917L26.8229 24.6763L26.634 24.9054Z" fill="url(#paint8_linear_2591_163)"/>
<defs>
<linearGradient id="paint0_linear_2591_163" x1="0.260987" y1="29.5421" x2="44.9909" y2="29.5421" gradientUnits="userSpaceOnUse">
<stop offset="0.000784548" stop-color="#17176B"/>
<stop offset="0.2981" stop-color="#2E1868"/>
<stop offset="0.9996" stop-color="#EA1F50"/>
</linearGradient>
<linearGradient id="paint1_linear_2591_163" x1="0.261088" y1="36.4628" x2="44.991" y2="36.4628" gradientUnits="userSpaceOnUse">
<stop offset="0.000784548" stop-color="#17176B"/>
<stop offset="0.2981" stop-color="#2E1868"/>
<stop offset="0.9996" stop-color="#EA1F50"/>
</linearGradient>
<linearGradient id="paint2_linear_2591_163" x1="0.261174" y1="36.4628" x2="44.9911" y2="36.4628" gradientUnits="userSpaceOnUse">
<stop offset="0.000784548" stop-color="#17176B"/>
<stop offset="0.2981" stop-color="#2E1868"/>
<stop offset="0.9996" stop-color="#EA1F50"/>
</linearGradient>
<linearGradient id="paint3_linear_2591_163" x1="0.260788" y1="6.74681" x2="44.9907" y2="6.74681" gradientUnits="userSpaceOnUse">
<stop offset="0.000784548" stop-color="#17176B"/>
<stop offset="0.2981" stop-color="#2E1868"/>
<stop offset="0.9996" stop-color="#EA1F50"/>
</linearGradient>
<linearGradient id="paint4_linear_2591_163" x1="0.260987" y1="13.6684" x2="44.9909" y2="13.6684" gradientUnits="userSpaceOnUse">
<stop offset="0.000784548" stop-color="#17176B"/>
<stop offset="0.2981" stop-color="#2E1868"/>
<stop offset="0.9996" stop-color="#EA1F50"/>
</linearGradient>
<linearGradient id="paint5_linear_2591_163" x1="0.261002" y1="29.542" x2="44.9909" y2="29.542" gradientUnits="userSpaceOnUse">
<stop offset="0.000784548" stop-color="#17176B"/>
<stop offset="0.2981" stop-color="#2E1868"/>
<stop offset="0.9996" stop-color="#EA1F50"/>
</linearGradient>
<linearGradient id="paint6_linear_2591_163" x1="0.261002" y1="13.6684" x2="44.9909" y2="13.6684" gradientUnits="userSpaceOnUse">
<stop offset="0.000784548" stop-color="#17176B"/>
<stop offset="0.2981" stop-color="#2E1868"/>
<stop offset="0.9996" stop-color="#EA1F50"/>
</linearGradient>
<linearGradient id="paint7_linear_2591_163" x1="0.261174" y1="6.74684" x2="44.9911" y2="6.74684" gradientUnits="userSpaceOnUse">
<stop offset="0.000784548" stop-color="#17176B"/>
<stop offset="0.2981" stop-color="#2E1868"/>
<stop offset="0.9996" stop-color="#EA1F50"/>
</linearGradient>
<linearGradient id="paint8_linear_2591_163" x1="15.8485" y1="21.6048" x2="27.9438" y2="21.6048" gradientUnits="userSpaceOnUse">
<stop offset="0.000424102" stop-color="#EA1F50"/>
<stop offset="0.7019" stop-color="#2E1868"/>
<stop offset="0.9992" stop-color="#17176B"/>
</linearGradient>
</defs>
</svg>
