<svg width="219" height="200" viewBox="0 0 219 200" fill="none" xmlns="http://www.w3.org/2000/svg">
<path d="M213.984 176.213L194.582 195.919C189.224 201.36 180.537 201.36 175.179 195.919L155.777 176.213C150.419 170.772 150.419 161.949 155.777 156.508L175.179 136.802C180.537 131.36 189.224 131.36 194.582 136.802L213.984 156.508C219.342 161.949 219.342 170.772 213.984 176.213Z" fill="#6EE4B8"/>
<path d="M62.2251 176.213L42.8228 195.919C37.465 201.36 28.7784 201.36 23.4206 195.919L4.01834 176.213C-1.33945 170.772 -1.33945 161.949 4.01834 156.508L23.4206 136.802C28.7784 131.36 37.465 131.36 42.8228 136.802L62.2251 156.508C67.5828 161.949 67.5828 170.772 62.2251 176.213Z" fill="#6EE4B8"/>
<path d="M41.9578 109.853L61.3601 129.559C66.7179 135 75.4045 135 80.7623 129.559L99.2998 110.731C104.658 105.29 113.344 105.29 118.702 110.731L137.239 129.559C142.597 135 151.284 135 156.642 129.559L176.044 109.853C181.402 104.411 181.402 95.5888 176.044 90.1472L156.642 70.4415C151.284 65 142.597 65 137.239 70.4415L118.702 89.2689C113.344 94.7104 104.658 94.7104 99.2998 89.2689L80.7623 70.4415C75.4045 65 66.7179 65 61.3601 70.4415L41.9578 90.1472C36.6 95.5888 36.6 104.411 41.9578 109.853Z" fill="#6EE4B8"/>
<path d="M138.104 43.4925L118.702 63.1981C113.344 68.6397 104.658 68.6397 99.3 63.1981L79.8977 43.4925C74.5399 38.0509 74.5399 29.2284 79.8977 23.7868L99.3 4.08117C104.658 -1.36039 113.344 -1.36039 118.702 4.08117L138.104 23.7868C143.462 29.2284 143.462 38.0509 138.104 43.4925Z" fill="#6EE4B8"/>
</svg>
