<svg width="23" height="30" viewBox="0 0 23 30" fill="none" xmlns="http://www.w3.org/2000/svg">
<path d="M7.5 15L7.5 26.25C7.5 28.32 5.82 30 3.75 30C1.68 30 -2.86102e-06 28.32 -2.86102e-06 26.25L-2.86102e-06 18.75C-2.86102e-06 16.68 1.68 15 3.75 15H7.5Z" fill="#2C135D"/>
<path d="M-2.86102e-06 18.75C-2.86102e-06 20.8211 1.67893 22.5 3.75 22.5C5.82107 22.5 7.5 20.8211 7.5 18.75V15C7.5 12.9289 5.82107 11.25 3.75 11.25C1.67893 11.25 -2.86102e-06 12.9289 -2.86102e-06 15V18.75Z" fill="#14C4CE"/>
<path d="M22.5 3.75V7.5L3.74999 7.5C1.67999 7.5 -1.14441e-05 5.82 -1.14441e-05 3.75C-1.14441e-05 1.68 1.67999 0 3.74999 0L18.75 0C20.82 0 22.5 1.68 22.5 3.75Z" fill="#2C135D"/>
<path d="M22.5 3.75V15H15V3.75C15 1.68 16.68 0 18.75 0C20.82 0 22.5 1.68 22.5 3.75Z" fill="#14C4CE"/>
<path d="M22.5 15V18.75C22.5 20.82 20.82 22.5 18.75 22.5H3.74999C1.67999 22.5 -1.14441e-05 20.82 -1.14441e-05 18.75C-1.14441e-05 16.68 1.67999 15 3.74999 15L22.5 15Z" fill="#14C4CE"/>
</svg>
