<svg width="150" height="200" viewBox="0 0 150 200" fill="none" xmlns="http://www.w3.org/2000/svg">
<path d="M50 100L50 175C50 188.8 38.8 200 25 200C11.2 200 -1.93715e-05 188.8 -1.93715e-05 175L-1.93715e-05 125C-1.93715e-05 111.2 11.2 100 25 100H50Z" fill="white"/>
<path d="M-1.90735e-05 125C-1.90735e-05 138.807 11.1929 150 25 150C38.8071 150 50 138.807 50 125L50 100C50 86.1929 38.8071 75 25 75C11.1929 75 -1.90735e-05 86.1929 -1.90735e-05 100L-1.90735e-05 125Z" fill="#14C4CE"/>
<path d="M150 25V50L24.9999 50C11.1999 50 -7.15256e-05 38.8 -7.15256e-05 25C-7.15256e-05 11.2 11.1999 0 24.9999 0L125 0C138.8 0 150 11.2 150 25Z" fill="white"/>
<path d="M150 25V100H100V25C100 11.2 111.2 0 125 0C138.8 0 150 11.2 150 25Z" fill="#14C4CE"/>
<path d="M150 100V125C150 138.8 138.8 150 125 150H24.9999C11.1999 150 -7.15256e-05 138.8 -7.15256e-05 125C-7.15256e-05 111.2 11.1999 100 24.9999 100L150 100Z" fill="#14C4CE"/>
</svg>
