<svg width="55" height="55" viewBox="0 0 55 55" fill="none" xmlns="http://www.w3.org/2000/svg">
<path d="M16.9463 28.067L23.4244 34.5445C24.0134 35.1334 24.0134 36.0897 23.4244 36.6785L17.5453 42.5571C17.2634 42.8389 16.8758 43 16.4782 43H14.5101C13.6745 43 13 42.3256 13 41.4901V12.5099C12.995 11.6795 13.6745 11 14.505 11C16.1611 11 17.7517 11.6593 18.9194 12.827L23.4144 17.3215C24.0033 17.9103 24.0033 18.8666 23.4144 19.4555L16.9413 25.928C16.3523 26.5168 16.3523 27.4731 16.9413 28.062L16.9463 28.067Z" fill="#524B4B"/>
<path d="M37.4532 11C35.4499 11 33.5271 11.7952 32.1126 13.2145L24.2402 21.0862L19.4332 25.8877C18.8191 26.5017 18.8191 27.4932 19.4332 28.1073L24.2402 32.9138L32.1076 40.7804C33.522 42.1947 35.4448 42.995 37.4482 42.995H40.4884C41.3542 42.995 42.0589 42.2903 42.0589 41.4247V36.2054C42.0589 35.7877 41.8928 35.3901 41.6008 35.0931L34.6093 28.1022C33.9952 27.4882 33.9952 26.4967 34.6093 25.8827L41.6008 18.8918C41.8978 18.5948 42.0589 18.1972 42.0589 17.7795V12.5703C42.0639 11.7046 41.3592 11 40.4934 11H37.4582H37.4532Z" fill="#E2A226"/>
</svg>
