<svg width="107" height="107" viewBox="0 0 107 107" fill="none" xmlns="http://www.w3.org/2000/svg">
<g clip-path="url(#clip0_2208_136270)">
<path d="M38.2097 68.79V22.93H22.9297V68.79V84.07H38.2097H84.0697V68.79H38.2097Z" fill="url(#paint0_linear_2208_136270)"/>
<path d="M68.79 38.21H53.5V53.5H68.79V38.21Z" fill="url(#paint1_linear_2208_136270)"/>
<path d="M91.71 7.64C95.93 7.64 99.35 11.06 99.35 15.28V91.71C99.35 95.93 95.93 99.35 91.71 99.35H15.29C11.07 99.35 7.65 95.93 7.65 91.71V15.29C7.65 11.07 11.07 7.65 15.29 7.65H91.71V7.64ZM91.71 0H15.29C6.86 0 0 6.86 0 15.29V91.72C0 100.14 6.86 107 15.29 107H91.72C100.15 107 107.01 100.14 107.01 91.71V15.29C107 6.86 100.14 0 91.71 0Z" fill="url(#paint2_linear_2208_136270)"/>
</g>
<defs>
<linearGradient id="paint0_linear_2208_136270" x1="-36.5167" y1="53.5" x2="93.5597" y2="53.5" gradientUnits="userSpaceOnUse">
<stop stop-color="#00A185"/>
<stop offset="0.5" stop-color="#00B6A9"/>
<stop offset="0.9944" stop-color="#8AD0C3"/>
</linearGradient>
<linearGradient id="paint1_linear_2208_136270" x1="-36.5163" y1="45.8571" x2="93.56" y2="45.8571" gradientUnits="userSpaceOnUse">
<stop stop-color="#00A185"/>
<stop offset="0.5" stop-color="#00B6A9"/>
<stop offset="0.9944" stop-color="#8AD0C3"/>
</linearGradient>
<linearGradient id="paint2_linear_2208_136270" x1="0" y1="53.5" x2="107" y2="53.5" gradientUnits="userSpaceOnUse">
<stop stop-color="#00A185"/>
<stop offset="0.5" stop-color="#00B6A9"/>
<stop offset="0.9944" stop-color="#8AD0C3"/>
</linearGradient>
<clipPath id="clip0_2208_136270">
<rect width="107" height="107" fill="white"/>
</clipPath>
</defs>
</svg>
