<svg width="92" height="125" viewBox="0 0 92 125" fill="none" xmlns="http://www.w3.org/2000/svg">
<path d="M53.701 94.2951H43.7934V125H25.4414V41.813H59.452C79.8823 41.813 87.9565 49.5199 87.9565 68.1167C87.9565 81.6941 83.5491 89.5234 73.1519 92.5811L91.1336 125H70.2196L53.701 94.2951ZM43.7934 78.6364H57.4932C66.4274 78.6364 69.6045 75.5788 69.6045 68.1167C69.6045 60.5293 66.4274 57.4716 57.4932 57.4716H43.7934V78.6364Z" fill="#0A2662"/>
<path d="M65.4142 31.4467C66.505 32.8604 68.3253 33.9197 70.0348 33.1007C71.5526 32.3736 72.2594 30.3929 71.9535 28.4383L69.9116 9.06752L79.9016 46.5337L25.4569 71.9216L3.17773 40.186L16.5788 54.3043C17.836 55.6663 19.6023 56.6208 21.3202 55.8197C23.0382 55.0186 23.6911 53.277 23.0771 51.2002L14.9167 22.4572L30.5121 44.7203C31.7036 46.2619 33.5027 47.1029 35.2207 46.3018C36.9387 45.5007 37.3308 43.9185 36.9784 41.7928L27.8228 5.76562L49.3392 35.9706C50.4555 37.4144 52.2817 38.3461 53.9997 37.545C55.7176 36.7439 56.3293 35.2514 55.7639 32.9304L48.746 6.68228L65.4142 31.4467Z" fill="#FFD31A"/>
<path d="M72.8223 10.2698C73.3125 8.9229 72.6258 7.43647 71.2885 6.94973C69.9511 6.46299 68.4696 7.16024 67.9794 8.5071C67.4892 9.85395 68.1759 11.3404 69.5132 11.8271C70.8505 12.3139 72.3321 11.6166 72.8223 10.2698Z" fill="#FFD31A"/>
<path d="M72.823 10.2695C72.823 10.2695 71.4293 11.3685 70.1043 11.0463C69.506 10.945 68.9634 10.6336 68.5741 10.1682C68.1847 9.7027 67.9741 9.11364 67.9802 8.50684C67.8616 8.82545 67.8072 9.16438 67.8202 9.50409C67.8332 9.84381 67.9133 10.1776 68.0559 10.4862C68.1985 10.7948 68.4007 11.0722 68.6509 11.3023C68.9012 11.5325 69.1944 11.7108 69.5139 11.8271C69.8334 11.9433 70.1727 11.9953 70.5123 11.9798C70.8519 11.9644 71.1851 11.8819 71.4927 11.7371C71.8003 11.5923 72.0762 11.3881 72.3045 11.1362C72.5328 10.8844 72.7091 10.5898 72.823 10.2695Z" fill="#FFD31A"/>
<path d="M50.2085 9.81818C51.9283 9.01626 52.6677 6.96209 51.86 5.23008C51.0524 3.49807 49.0035 2.7441 47.2838 3.54603C45.5641 4.34795 44.8247 6.40212 45.6323 8.13413C46.4399 9.86613 48.4888 10.6201 50.2085 9.81818Z" fill="#FFD31A"/>
<path d="M51.8606 5.22998C51.8606 5.22998 51.5647 7.67484 50.0118 8.62035C47.3851 10.2196 45.6328 8.13403 45.6328 8.13403C45.8214 8.5462 46.0897 8.91697 46.4223 9.22499C46.7548 9.53302 47.145 9.77219 47.5704 9.92875C47.9958 10.0853 48.4479 10.1561 48.9008 10.1372C49.3537 10.1182 49.7983 10.0098 50.2092 9.81827C50.62 9.62671 50.9888 9.35575 51.2944 9.02102C51.6001 8.68628 51.8364 8.29437 51.9899 7.86788C52.1434 7.44139 52.211 6.98873 52.1888 6.536C52.1666 6.08327 52.0551 5.6394 51.8606 5.22998V5.22998Z" fill="#FFD31A"/>
<path d="M29.5639 9.65506C31.7136 8.65265 32.6378 6.08494 31.6283 3.91993C30.6187 1.75492 28.0576 0.812445 25.908 1.81486C23.7583 2.81727 22.834 5.38497 23.8436 7.54998C24.8532 9.71499 27.4142 10.6575 29.5639 9.65506Z" fill="#FFD31A"/>
<path d="M31.6265 3.92041C31.6265 3.92041 31.2877 6.87419 29.3465 8.05608C26.0633 10.0551 23.8418 7.55046 23.8418 7.55046C24.0776 8.06564 24.413 8.52908 24.8287 8.91408C25.2443 9.29907 25.7321 9.59802 26.2638 9.79369C26.7955 9.98936 27.3607 10.0779 27.9268 10.0542C28.4928 10.0305 29.0486 9.895 29.5621 9.65556C30.0756 9.41611 30.5367 9.07744 30.9187 8.65903C31.3007 8.24063 31.5962 7.75077 31.7881 7.21768C31.9799 6.68459 32.0645 6.11879 32.0367 5.5529C32.009 4.987 31.8696 4.43219 31.6265 3.92041Z" fill="#FFD31A"/>
<path d="M5.75873 41.4285C6.24547 40.0912 5.54821 38.6097 4.20135 38.1195C2.8545 37.6292 1.36807 38.316 0.881328 39.6533C0.394584 40.9906 1.09184 42.4721 2.4387 42.9623C3.78555 43.4525 5.27198 42.7658 5.75873 41.4285Z" fill="#FFD31A"/>
<path d="M4.20211 38.1191C4.20211 38.1191 5.30093 39.5893 4.97879 40.9143C4.43395 43.1553 2.43945 42.962 2.43945 42.962C2.75807 43.0806 3.097 43.1349 3.43671 43.1219C3.77642 43.1089 4.11021 43.0288 4.41883 42.8863C4.72746 42.7437 5.00482 42.5415 5.23495 42.2912C5.46507 42.041 5.64341 41.7477 5.75968 41.4283C5.87596 41.1088 5.92787 40.7695 5.91243 40.4299C5.89699 40.0903 5.81451 39.7571 5.66972 39.4495C5.52494 39.1419 5.32073 38.866 5.06885 38.6377C4.81697 38.4093 4.5224 38.2331 4.20211 38.1191Z" fill="#FFD31A"/>
<path d="M16.3785 25.5931C18.0982 24.7912 18.8376 22.737 18.03 21.005C17.2223 19.273 15.1735 18.519 13.4537 19.3209C11.734 20.1229 10.9946 22.177 11.8022 23.909C12.6099 25.641 14.6587 26.395 16.3785 25.5931Z" fill="#FFD31A"/>
<path d="M18.0305 21.0049C18.0305 21.0049 17.8452 23.4635 16.2923 24.4091C15.6054 24.8693 14.7778 25.0715 13.9561 24.98C13.1343 24.8885 12.3715 24.5091 11.8027 23.9089C11.9914 24.3211 12.2597 24.6918 12.5923 24.9997C12.9248 25.3077 13.315 25.5468 13.7403 25.7033C14.1657 25.8598 14.6178 25.9306 15.0707 25.9116C15.5235 25.8927 15.9681 25.7843 16.3789 25.5927C16.7896 25.4012 17.1585 25.1303 17.4641 24.7956C17.7697 24.4609 18.0061 24.069 18.1596 23.6426C18.3131 23.2161 18.3807 22.7635 18.3586 22.3108C18.3364 21.8581 18.2249 21.4143 18.0305 21.0049Z" fill="#FFD31A"/>
<path d="M26.0529 46.7304L27.7558 56.1021C28.0718 57.3978 27.9291 58.7629 27.3519 59.9652C26.7747 61.1675 25.7988 62.1327 24.5902 62.6965L24.5391 62.7203L24.4926 62.742C23.65 63.1349 22.7129 63.2797 21.791 63.1593C20.869 63.039 20.0005 62.6585 19.287 62.0623L17.4258 60.5067L25.4514 71.9305L79.9013 46.5401L76.2871 33.0023L76.1861 36.6983C75.9196 38.286 74.6412 39.21 72.9239 40.0108L72.8721 40.0349C70.3859 41.1989 67.1073 40.4637 65.4867 38.248L60.7229 32.3682L60.9319 38.547L60.9392 38.5627C61.0565 39.8572 60.776 41.1567 60.1351 42.2876C59.4942 43.4185 58.5235 44.3269 57.3526 44.8914C54.6177 46.2781 51.2067 46.3699 49.4663 44.0646L41.9741 36.4293L42.3271 47.3937C42.4286 48.668 42.1384 49.943 41.4953 51.0478C40.8523 52.1527 39.887 53.0347 38.7288 53.5758C37.4705 54.1751 36.0525 54.3526 34.6854 54.0819C33.3182 53.8113 32.0748 53.107 31.1397 52.0735L26.0529 46.7304Z" fill="#FFC306"/>
<path d="M53.5765 61.1659C68.6137 54.154 80.4006 47.6053 79.9034 46.5391C79.4062 45.4728 66.8132 50.2928 51.776 57.3047C36.7389 64.3167 24.9519 70.8653 25.4491 71.9316C25.9463 72.9978 38.5393 68.1778 53.5765 61.1659Z" fill="#BC990A"/>
<path d="M73.1592 92.5765C83.546 89.5278 87.9556 81.6907 87.9556 68.1178C87.9556 57.8692 85.509 50.9276 79.8765 46.7593C79.8252 46.7077 79.7563 46.6732 79.705 46.6215C79.6015 46.5527 79.4804 46.4666 79.377 46.3977L79.3602 46.3805C79.3193 46.3788 79.2786 46.3846 79.2399 46.3977C79.1874 46.3949 79.1349 46.4007 79.0843 46.4148C78.964 46.4321 78.8093 46.4493 78.6537 46.4838C78.2575 46.5527 77.758 46.6905 77.1726 46.8454C76.8286 46.9488 76.4493 47.0694 76.0355 47.19C75.5704 47.345 75.0711 47.5173 74.5376 47.7067C74.0894 47.8617 73.6243 48.0339 73.1423 48.189L73.1247 48.2062C72.8841 48.2923 72.6251 48.3784 72.3846 48.4818C72.1255 48.5679 71.8673 48.6712 71.5923 48.7746C71.0406 48.9814 70.4376 49.2224 69.8177 49.4636C69.2147 49.7048 68.578 49.9631 67.9229 50.2215C66.9414 50.6176 65.9077 51.0482 64.8396 51.4961C64.134 51.7888 63.393 52.099 62.6521 52.4262C62.2736 52.5812 61.8943 52.7535 61.5158 52.9085C60.758 53.2358 59.9826 53.5803 59.1903 53.9248C57.4847 54.6998 55.711 55.4922 53.8851 56.3189C53.1963 56.6462 52.4898 56.9562 51.7842 57.3007C51.663 57.3524 51.5251 57.4213 51.4048 57.473H57.5024C58.6365 57.4615 59.7702 57.5248 60.896 57.6624H60.9128C67.2509 58.4203 69.6108 61.5896 69.6108 68.1177C69.6108 75.576 66.425 78.6419 57.5024 78.6419H43.7917V61.1246C42.5857 61.7274 41.4144 62.313 40.2779 62.8814C39.8986 63.0882 39.5201 63.2777 39.1585 63.4671C37.2981 64.4144 35.558 65.3274 34.0079 66.1714H33.9911C33.6984 66.3436 33.3881 66.5159 33.0954 66.6709C32.8019 66.8432 32.5092 66.9981 32.2342 67.1532C31.9583 67.3081 31.6827 67.4631 31.4074 67.6182H31.3898C31.3385 67.6527 31.2863 67.6871 31.235 67.7215C31.1484 67.7732 31.0626 67.825 30.9768 67.8766C30.8557 67.9454 30.7354 68.0144 30.632 68.066C30.1156 68.3589 29.6505 68.6517 29.2022 68.91C28.9953 69.0478 28.7716 69.1684 28.5824 69.3062C28.5054 69.3482 28.4308 69.3941 28.3587 69.444C28.2376 69.5129 28.1173 69.599 27.997 69.6679C27.8246 69.7885 27.6522 69.8918 27.4974 70.0124H27.4798C27.3639 70.0831 27.2544 70.1638 27.1526 70.2536C27.1074 70.2661 27.066 70.2898 27.0323 70.3224C26.9833 70.3526 26.9371 70.3872 26.8944 70.4258C26.8383 70.444 26.7898 70.4804 26.7565 70.5291C26.5808 70.6429 26.4138 70.7696 26.2569 70.9081C26.1535 70.9942 26.0677 71.0631 25.981 71.1493C25.8889 71.2099 25.8076 71.2856 25.7405 71.3732C25.7228 71.3903 25.706 71.4076 25.6884 71.4248C25.6539 71.4421 25.6539 71.4593 25.6539 71.4765C25.6194 71.5109 25.6026 71.5454 25.5681 71.5626C25.5504 71.5799 25.5504 71.5799 25.5504 71.597C25.5168 71.6315 25.4991 71.666 25.4815 71.6832V71.7176H25.4646C25.4513 71.738 25.4453 71.7623 25.4478 71.7866V124.993H43.7917V94.299H53.6958L70.2138 124.993H91.1414L73.1592 92.5765ZM36.9709 41.8159H28.4789L30.5117 44.7269C31.7001 46.2599 33.5083 47.1039 35.214 46.2943C36.9364 45.502 37.3325 43.9345 36.9709 41.8159Z" fill="#0A2662"/>
</svg>
