<svg width="120" height="120" viewBox="0 0 120 120" fill="none" xmlns="http://www.w3.org/2000/svg">
<path d="M60.4031 32.6367C45.6056 32.6367 33.5986 44.8839 33.5986 59.9892C33.5986 75.0944 45.5958 87.3416 60.4031 87.3416C75.2104 87.3416 87.2076 75.0944 87.2076 59.9892C87.2076 44.8839 75.2104 32.6367 60.4031 32.6367ZM62.9676 74.8685V79.9363H56.2174V75.2712C53.9182 74.9569 51.7172 74.1712 50.1942 73.0908L48.9857 72.2266L49.4868 70.8319L50.5578 67.8364L51.4028 65.4695L53.4956 66.8641C54.9892 67.8659 56.9936 68.4552 58.8506 68.4552C60.4031 68.4552 62.211 67.8266 62.211 66.0391C62.211 65.0963 61.9163 63.9668 58.3987 62.5427C54.1343 60.8731 49.7717 58.4276 49.7717 52.9767C49.7717 48.8616 52.4246 45.5027 56.5318 44.2259V39.2956H63.2329V43.8036C65.0212 44.0688 66.6129 44.6188 68.077 45.4732L69.5115 46.308L68.922 47.8598L67.8018 50.816L66.9863 52.9669L64.9917 51.8276C64.2744 51.4151 62.7809 50.5705 60.3343 50.5705C57.8877 50.5705 57.5537 51.8866 57.5537 52.4562C57.5537 53.3598 57.8583 54.0669 61.877 55.7365C65.6795 57.2883 70.0323 59.8222 70.0323 65.7346C70.0323 70.056 67.2516 73.5623 62.9676 74.8881V74.8685Z" fill="#6CC4E2"/>
<path d="M69.9141 18.3512C70.2187 18.3512 70.4054 18.0271 70.2482 17.7619L65.1683 8.9718L60.0982 0.191516C59.9508 -0.0638387 59.5676 -0.0638387 59.4203 0.191516L54.3404 8.98162L49.2605 17.7717C49.1131 18.0271 49.2998 18.361 49.5946 18.361H54.4681C54.6843 18.361 54.8611 18.5378 54.8611 18.7539V25.6779C54.8611 25.894 55.038 26.0708 55.2542 26.0708H64.2447C64.4608 26.0708 64.6377 25.894 64.6377 25.6779V18.7539C64.6377 18.5378 64.8146 18.361 65.0307 18.361H69.9043L69.9141 18.3512Z" fill="#6CC4E2"/>
<path d="M18.3593 49.8557C18.3593 49.5512 18.035 49.3646 17.7698 49.5218L8.97576 54.5994L0.191601 59.6672C-0.063867 59.8145 -0.063867 60.1976 0.191601 60.3449L8.98559 65.4225L17.7796 70.5002C18.035 70.6475 18.3691 70.4609 18.3691 70.1663V65.2949C18.3691 65.0788 18.546 64.902 18.7621 64.902H25.6893C25.9054 64.902 26.0823 64.7252 26.0823 64.5092V55.5226C26.0823 55.3066 25.9054 55.1298 25.6893 55.1298H18.7621C18.546 55.1298 18.3691 54.953 18.3691 54.7369V49.8655L18.3593 49.8557Z" fill="#6CC4E2"/>
<path d="M101.631 70.155C101.631 70.4595 101.955 70.6461 102.221 70.4889L111.015 65.4113L119.809 60.3337C120.064 60.1863 120.064 59.8033 119.809 59.656L111.015 54.5783L102.221 49.5007C101.965 49.3534 101.631 49.54 101.631 49.8346V54.706C101.631 54.9221 101.454 55.0989 101.238 55.0989H94.311C94.0948 55.0989 93.918 55.2757 93.918 55.4917V64.4783C93.918 64.6943 94.0948 64.8711 94.311 64.8711H101.238C101.454 64.8711 101.631 65.0479 101.631 65.264V70.1354V70.155Z" fill="#6CC4E2"/>
<path d="M49.6137 101.639C49.3091 101.639 49.1224 101.964 49.2796 102.229L54.3595 111.019L59.4394 119.809C59.5868 120.064 59.97 120.064 60.1173 119.809L65.1972 111.019L70.2771 102.229C70.4245 101.973 70.2378 101.639 69.943 101.639H65.0695C64.8533 101.639 64.6765 101.463 64.6765 101.247V94.3225C64.6765 94.1065 64.4996 93.9297 64.2834 93.9297H55.2929C55.0768 93.9297 54.8999 94.1065 54.8999 94.3225V101.247C54.8999 101.463 54.723 101.639 54.5069 101.639H49.6333H49.6137Z" fill="#6CC4E2"/>
<path d="M23.4373 81.8642C23.2309 81.6481 22.8674 81.7365 22.7789 82.0213L19.9098 91.7543L17.0407 101.487C16.9523 101.772 17.2176 102.047 17.5025 101.978L27.3675 99.5917L37.2325 97.2051C37.5273 97.1364 37.6354 96.773 37.4192 96.5569L34.0588 93.031C33.9114 92.8739 33.9114 92.6284 34.0687 92.481L39.0896 87.7079C39.2468 87.5606 39.2566 87.315 39.0994 87.1579L32.8994 80.6463C32.752 80.4892 32.5064 80.4794 32.3492 80.6365L27.3282 85.4097C27.171 85.557 26.9254 85.557 26.778 85.3998L23.4176 81.874L23.4373 81.8642Z" fill="#6CC4E2"/>
<path d="M96.5008 83.2001C96.7072 82.984 97.0707 83.0724 97.1592 83.3572L100.028 93.0902L102.897 102.823C102.986 103.108 102.721 103.383 102.436 103.314L92.5706 100.928L82.7056 98.541C82.4108 98.4723 82.3027 98.1089 82.5189 97.8928L85.8793 94.367C86.0267 94.2098 86.0267 93.9643 85.8694 93.817L80.8485 89.0438C80.6913 88.8965 80.6815 88.6509 80.8387 88.4938L87.0387 81.9823C87.1861 81.8251 87.4317 81.8153 87.5889 81.9724L92.6099 86.7456C92.7671 86.8929 93.0127 86.8929 93.1601 86.7358L96.5205 83.2099L96.5008 83.2001Z" fill="#6CC4E2"/>
<path d="M96.5008 37.242C96.7072 37.458 97.0707 37.3697 97.1592 37.0848L100.028 27.3519L102.897 17.6189C102.986 17.3341 102.721 17.0591 102.436 17.1279L92.5706 19.5144L82.7056 21.901C82.4108 21.9698 82.3027 22.3332 82.5189 22.5492L85.8793 26.0751C86.0267 26.2322 86.0267 26.4778 85.8694 26.6251L80.8485 31.3983C80.6913 31.5456 80.6815 31.7911 80.8387 31.9483L87.0387 38.4598C87.1861 38.617 87.4317 38.6268 87.5889 38.4696L92.6099 33.6965C92.7671 33.5492 93.0127 33.5492 93.1601 33.7063L96.5205 37.2322L96.5008 37.242Z" fill="#6CC4E2"/>
<path d="M23.4373 37.242C23.2309 37.458 22.8674 37.3697 22.7789 37.0848L19.9098 27.3519L17.0407 17.6189C16.9523 17.3341 17.2176 17.0591 17.5025 17.1279L27.3675 19.5144L37.2325 21.901C37.5273 21.9698 37.6354 22.3332 37.4192 22.5492L34.0588 26.0751C33.9114 26.2322 33.9114 26.4778 34.0687 26.6251L39.0896 31.3983C39.2468 31.5456 39.2566 31.7911 39.0994 31.9483L32.8994 38.4598C32.752 38.617 32.5064 38.6268 32.3492 38.4696L27.3282 33.6965C27.171 33.5492 26.9254 33.5492 26.778 33.7063L23.4176 37.2322L23.4373 37.242Z" fill="#6CC4E2"/>
</svg>
