<svg width="100" height="100" viewBox="0 0 100 100" fill="none" xmlns="http://www.w3.org/2000/svg">
<path d="M49.9956 15.4844C59.1373 15.4953 67.9015 19.1243 74.3656 25.5754C80.8298 32.0265 84.4662 40.7728 84.4772 49.896C84.5676 51.1229 84.4034 52.3553 83.9951 53.516C83.5867 54.6768 82.9429 55.741 82.1038 56.6423C81.2647 57.5435 80.2484 58.2623 79.1183 58.7539C77.9883 59.2454 76.7688 59.4991 75.5361 59.4991C74.3034 59.4991 73.0839 59.2454 71.9538 58.7539C70.8238 58.2623 69.8075 57.5435 68.9684 56.6423C68.1293 55.741 67.4855 54.6768 67.0771 53.516C66.6687 52.3553 66.5046 51.1229 66.595 49.896C66.5064 45.5601 64.7183 41.4315 61.6143 38.3963C58.5103 35.3611 54.3378 33.6611 49.9921 33.6611C45.6464 33.6611 41.4739 35.3611 38.3699 38.3963C35.2659 41.4315 33.4777 45.5601 33.3892 49.896C33.4861 51.1263 33.327 52.3632 32.9218 53.5291C32.5166 54.695 31.8741 55.7647 31.0347 56.6708C30.1953 57.577 29.1771 58.3001 28.0442 58.7946C26.9113 59.2891 25.6881 59.5444 24.4516 59.5444C23.215 59.5444 21.9918 59.2891 20.8589 58.7946C19.726 58.3001 18.7078 57.577 17.8684 56.6708C17.029 55.7647 16.3865 54.695 15.9813 53.5291C15.5761 52.3632 15.417 51.1263 15.5139 49.896C15.5249 40.7728 19.1613 32.0265 25.6254 25.5754C32.0896 19.1243 40.8538 15.4953 49.9956 15.4844Z" fill="url(#paint0_linear_14905_488793)"/>
<path d="M24.454 40.9766C26.8317 40.9766 29.1121 41.9192 30.7934 43.5971C32.4747 45.275 33.4192 47.5507 33.4192 49.9236C33.3742 52.1279 33.7704 54.319 34.5845 56.3686C35.3987 58.4182 36.6144 60.2851 38.1606 61.8599C39.7068 63.4347 41.5523 64.6858 43.5891 65.5399C45.6258 66.394 47.8129 66.8339 50.0221 66.8339C52.2314 66.8339 54.4184 66.394 56.4552 65.5399C58.4919 64.6858 60.3374 63.4347 61.8836 61.8599C63.4298 60.2851 64.6456 58.4182 65.4597 56.3686C66.2739 54.319 66.67 52.1279 66.625 49.9236C66.791 47.6703 67.8051 45.5632 69.4636 44.0253C71.1221 42.4874 73.3022 41.6327 75.5661 41.6327C77.83 41.6327 80.0101 42.4874 81.6686 44.0253C83.3271 45.5632 84.3411 47.6703 84.5072 49.9236C84.5072 59.0501 80.8743 67.8029 74.4077 74.2563C67.9412 80.7097 59.1706 84.3352 50.0256 84.3352C40.8805 84.3352 32.1099 80.7097 25.6434 74.2563C19.1768 67.8029 15.5439 59.0501 15.5439 49.9236C15.5439 47.5602 16.4809 45.2928 18.1503 43.6165C19.8197 41.9402 22.0858 40.9911 24.454 40.9766Z" fill="url(#paint1_linear_14905_488793)"/>
<path d="M49.9986 33.33C54.3993 33.3355 58.6183 35.0825 61.7301 38.188C64.8419 41.2935 66.5925 45.5039 66.598 49.8958C66.5076 51.1227 66.6717 52.355 67.0801 53.5158C67.4885 54.6765 68.1323 55.7408 68.9714 56.642C69.8105 57.5432 70.8268 58.2621 71.9569 58.7536C73.0869 59.2452 74.3064 59.4989 75.5391 59.4989C76.7718 59.4989 77.9913 59.2452 79.1213 58.7536C80.2514 58.2621 81.2677 57.5432 82.1068 56.642C82.9459 55.7408 83.5897 54.6765 83.9981 53.5158C84.4065 52.355 84.5706 51.1227 84.4802 49.8958C84.4781 44.5843 83.2439 39.3455 80.8744 34.5895C78.5049 29.8335 75.0644 25.6894 70.8223 22.4818C66.5802 19.2741 61.6517 17.09 56.4226 16.1005C51.1935 15.111 45.8059 15.3429 40.6816 16.778V36.2137C43.4248 34.3367 46.6726 33.3315 49.9986 33.33Z" fill="url(#paint2_linear_14905_488793)"/>
<path d="M49.9984 99.7946C36.7425 99.78 24.0337 94.5184 14.6603 85.1641C5.28696 75.8097 0.0146031 63.1267 0 49.8977C0.078105 46.5187 1.478 43.3044 3.90027 40.9422C6.32254 38.5799 9.57487 37.2574 12.9616 37.2574C16.3484 37.2574 19.6008 38.5799 22.023 40.9422C24.4453 43.3044 25.8452 46.5187 25.9233 49.8977C25.8692 53.0867 26.4519 56.2544 27.6373 59.2163C28.8227 62.1782 30.5872 64.8749 32.8278 67.1491C35.0684 69.4233 37.7404 71.2296 40.6878 72.4626C43.6352 73.6956 46.799 74.3306 49.9949 74.3306C53.1908 74.3306 56.3547 73.6956 59.3021 72.4626C62.2495 71.2296 64.9214 69.4233 67.162 67.1491C69.4026 64.8749 71.1671 62.1782 72.3525 59.2163C73.538 56.2544 74.1206 53.0867 74.0665 49.8977C74.0665 46.4662 75.4325 43.1751 77.8639 40.7487C80.2953 38.3222 83.5931 36.959 87.0316 36.959C90.4702 36.959 93.7679 38.3222 96.1993 40.7487C98.6308 43.1751 99.9967 46.4662 99.9967 49.8977C99.9821 63.1267 94.7098 75.8097 85.3364 85.1641C75.9631 94.5184 63.2543 99.78 49.9984 99.7946Z" fill="url(#paint3_linear_14905_488793)"/>
<path d="M87.0351 62.8356C83.5965 62.8356 80.2988 61.4725 77.8674 59.046C75.4359 56.6195 74.07 53.3284 74.07 49.8969C73.9631 43.596 71.38 37.5894 66.8773 33.1712C62.3747 28.7531 56.3129 26.2773 49.9984 26.2773C43.6838 26.2773 37.6221 28.7531 33.1194 33.1712C28.6167 37.5894 26.0336 43.596 25.9267 49.8969C25.9666 51.6207 25.6608 53.335 25.0273 54.9392C24.3938 56.5434 23.4455 58.005 22.2379 59.2382C21.0304 60.4715 19.588 61.4514 17.9956 62.1204C16.4032 62.7894 14.6929 63.134 12.9651 63.134C11.2373 63.134 9.527 62.7894 7.93459 62.1204C6.34218 61.4514 4.89983 60.4715 3.69228 59.2382C2.48474 58.005 1.53637 56.5434 0.902888 54.9392C0.26941 53.335 -0.0363969 51.6207 0.00344834 49.8969C0.00344834 36.6634 5.27112 23.9719 14.6476 14.6145C24.0241 5.25698 36.7414 0 50.0018 0C63.2622 0 75.9795 5.25698 85.356 14.6145C94.7325 23.9719 100 36.6634 100 49.8969C100 53.3284 98.6342 56.6195 96.2028 59.046C93.7714 61.4725 90.4736 62.8356 87.0351 62.8356Z" fill="url(#paint4_linear_14905_488793)"/>
<path d="M49.9984 99.9997C36.7425 99.9851 24.0337 94.7235 14.6603 85.3691C5.28696 76.0148 0.0146031 63.3318 0 50.1028C0.078105 46.7238 1.478 43.5095 3.90027 41.1472C6.32254 38.785 9.57487 37.4625 12.9616 37.4625C16.3484 37.4625 19.6008 38.785 22.023 41.1472C24.4453 43.5095 25.8452 46.7238 25.9233 50.1028C25.8692 53.2918 26.4519 56.4595 27.6373 59.4214C28.8227 62.3832 30.5872 65.0799 32.8278 67.3542C35.0684 69.6284 37.7404 71.4347 40.6878 72.6677C43.6352 73.9006 46.799 74.5356 49.9949 74.5356C53.1908 74.5356 56.3547 73.9006 59.3021 72.6677C62.2495 71.4347 64.9214 69.6284 67.162 67.3542C69.4026 65.0799 71.1671 62.3832 72.3525 59.4214C73.538 56.4595 74.1206 53.2918 74.0665 50.1028C74.0665 46.6713 75.4325 43.3802 77.8639 40.9537C80.2953 38.5272 83.5931 37.1641 87.0316 37.1641C90.4702 37.1641 93.7679 38.5272 96.1993 40.9537C98.6308 43.3802 99.9967 46.6713 99.9967 50.1028C99.9821 63.3318 94.7098 76.0148 85.3364 85.3691C75.9631 94.7235 63.2543 99.9851 49.9984 99.9997Z" fill="url(#paint5_linear_14905_488793)"/>
<path d="M87.0321 62.8335C83.5936 62.8335 80.296 61.4703 77.8647 59.0439C75.4333 56.6175 74.0674 53.3266 74.0674 49.8951C73.9606 43.5945 71.3775 37.5881 66.875 33.1701C62.3725 28.7521 56.311 26.2764 49.9966 26.2764C43.6823 26.2764 37.6208 28.7521 33.1182 33.1701C28.6157 37.5881 26.0327 43.5945 25.9258 49.8951C25.9657 51.6189 25.6599 53.3332 25.0264 54.9373C24.393 56.5414 23.4446 58.003 22.2371 59.2362C21.0296 60.4694 19.5873 61.4492 17.995 62.1182C16.4026 62.7872 14.6923 63.1319 12.9646 63.1319C11.2369 63.1319 9.52667 62.7872 7.93432 62.1182C6.34196 61.4492 4.89966 60.4694 3.69215 59.2362C2.48465 58.003 1.53631 56.5414 0.902856 54.9373C0.269401 53.3332 -0.0363957 51.6189 0.00344822 49.8951C0.00344822 36.6621 5.27093 23.9711 14.6471 14.614C24.0233 5.2568 36.7402 0 50.0001 0C63.26 0 75.9769 5.2568 85.353 14.614C94.7292 23.9711 99.9967 36.6621 99.9967 49.8951C99.9967 53.3266 98.6308 56.6175 96.1995 59.0439C93.7681 61.4703 90.4705 62.8335 87.0321 62.8335Z" fill="url(#paint6_linear_14905_488793)"/>
<path d="M50.465 73.8843C44.0254 73.868 37.8543 71.3277 33.3008 66.8188C28.7473 62.31 26.1818 56.1994 26.1653 49.8229C26.0864 46.439 24.6735 43.2199 22.2286 40.8542C19.7837 38.4885 16.501 37.1641 13.0826 37.1641C9.66424 37.1641 6.38156 38.4885 3.93668 40.8542C1.4918 43.2199 0.0788385 46.439 4.47037e-06 49.8229C-0.00327693 57.5415 1.79998 65.1557 5.26824 72.0681C8.73649 78.9805 13.7754 85.003 19.9895 89.6629C26.2035 94.3228 33.4237 97.4934 41.0833 98.9257C48.7429 100.358 56.6335 100.013 64.1358 97.9181V69.7006C60.1095 72.4288 55.3439 73.8873 50.465 73.8843Z" fill="url(#paint7_linear_14905_488793)"/>
<defs>
<linearGradient id="paint0_linear_14905_488793" x1="84.4703" y1="37.1499" x2="15.507" y2="37.1499" gradientUnits="userSpaceOnUse">
<stop stop-color="#00B1FF"/>
<stop offset="0.13" stop-color="#00B1FF"/>
<stop offset="1" stop-color="#0074FF"/>
</linearGradient>
<linearGradient id="paint1_linear_14905_488793" x1="84.4727" y1="62.6421" x2="15.5095" y2="62.6421" gradientUnits="userSpaceOnUse">
<stop stop-color="#FFD93B"/>
<stop offset="0.77" stop-color="#FFAA00"/>
<stop offset="1" stop-color="#FFAA00"/>
</linearGradient>
<linearGradient id="paint2_linear_14905_488793" x1="84.4733" y1="37.1497" x2="15.5101" y2="37.1497" gradientUnits="userSpaceOnUse">
<stop stop-color="#00B1FF"/>
<stop offset="0.13" stop-color="#00B1FF"/>
<stop offset="1" stop-color="#0074FF"/>
</linearGradient>
<linearGradient id="paint3_linear_14905_488793" x1="20400.3" y1="23761.8" x2="34899.9" y2="23761.8" gradientUnits="userSpaceOnUse">
<stop stop-color="#00B1FF"/>
<stop offset="0.13" stop-color="#00B1FF"/>
<stop offset="1" stop-color="#0074FF"/>
</linearGradient>
<linearGradient id="paint4_linear_14905_488793" x1="20401" y1="20446.6" x2="34901.1" y2="20446.6" gradientUnits="userSpaceOnUse">
<stop stop-color="#FFD93B"/>
<stop offset="0.77" stop-color="#FFAA00"/>
<stop offset="1" stop-color="#FFAA00"/>
</linearGradient>
<linearGradient id="paint5_linear_14905_488793" x1="0" y1="68.5888" x2="99.9967" y2="68.5888" gradientUnits="userSpaceOnUse">
<stop stop-color="#00B1FF"/>
<stop offset="0.13" stop-color="#00B1FF"/>
<stop offset="1" stop-color="#0074FF"/>
</linearGradient>
<linearGradient id="paint6_linear_14905_488793" x1="0.00344828" y1="31.4167" x2="99.9967" y2="31.4167" gradientUnits="userSpaceOnUse">
<stop stop-color="#FFD93B"/>
<stop offset="0.77" stop-color="#FFAA00"/>
<stop offset="1" stop-color="#FFAA00"/>
</linearGradient>
<linearGradient id="paint7_linear_14905_488793" x1="4.47038e-06" y1="68.3359" x2="100.93" y2="68.3359" gradientUnits="userSpaceOnUse">
<stop stop-color="#00B1FF"/>
<stop offset="0.13" stop-color="#00B1FF"/>
<stop offset="1" stop-color="#0074FF"/>
</linearGradient>
</defs>
</svg>
