<svg width="26" height="25" viewBox="0 0 26 25" fill="none" xmlns="http://www.w3.org/2000/svg">
<g clip-path="url(#clip0_2695_126)">
<path d="M25.0135 13.3028C25.0135 15.3947 24.1655 17.2883 22.7956 18.6594C21.4245 20.0293 19.5321 20.8772 17.4402 20.8772L9.86572 24.5V20.8772C11.4345 20.6055 12.8382 19.8502 13.9166 18.7707C15.2876 17.4008 16.1356 15.5072 16.1356 13.4153V7.48545C16.1356 6.91217 15.9256 6.37564 15.5664 5.96216C16.1659 5.80995 16.794 5.72888 17.4408 5.72888C19.5327 5.72888 21.4251 6.57684 22.7962 7.94675C24.1661 9.31666 25.0141 11.2114 25.0141 13.3022L25.0135 13.3028Z" fill="#542988"/>
<path d="M16.1351 7.48606V13.4159C16.1351 15.5078 15.2871 17.4014 13.9161 18.7714C12.8378 19.8508 11.434 20.6061 9.86523 20.8778V13.3034C9.86523 9.76691 12.2884 6.79731 15.5659 5.96277C15.9252 6.37625 16.1351 6.91278 16.1351 7.48606Z" fill="#FE562F"/>
<path d="M15.5658 5.96274C12.2889 6.79728 9.86514 9.76688 9.86514 13.3033V20.8778C9.44116 20.9519 9.00552 20.9904 8.56055 20.9904C4.37791 20.9904 0.986084 17.5985 0.986084 13.4159V0.5L14.5849 5.2944C14.9733 5.43145 15.3075 5.66531 15.5658 5.96215V5.96274Z" fill="#FFB233"/>
</g>
<defs>
<clipPath id="clip0_2695_126">
<rect width="24.028" height="24" fill="white" transform="translate(0.986084 0.5)"/>
</clipPath>
</defs>
</svg>
