<svg width="150" height="95" viewBox="0 0 150 95" fill="none" xmlns="http://www.w3.org/2000/svg">
<path d="M17.9537 94.3327H0L0.634235 91.005L15.368 75.5945H4.82994L5.54781 71.918H21.6616L21.0273 75.1759L6.25174 90.6492H18.6786L17.9607 94.3257L17.9537 94.3327Z" fill="white"/>
<path d="M41.058 94.3327L40.1868 88.6052H31.656L28.5545 94.3327H23.8849L36.3884 71.918H41.9153L45.6998 94.3327H41.058ZM38.4653 75.3713C38.2423 76.048 37.7265 77.1711 36.9111 78.7408L33.5448 85.0752H39.8244L38.758 77.8827C38.5699 76.4526 38.4723 75.6154 38.4723 75.3713H38.4653Z" fill="white"/>
<path d="M65.4656 71.925C68.0723 71.925 70.1004 72.518 71.5431 73.7039C72.9858 74.8899 73.7107 76.5363 73.7107 78.6361C73.7107 81.022 72.8952 82.9196 71.2713 84.3288C69.6474 85.738 67.4729 86.4426 64.7478 86.4426H58.7539L57.1997 94.3327H52.53L56.8651 71.918H65.4587L65.4656 71.925ZM59.4439 82.8358H64.0369C65.6817 82.8358 66.9083 82.5289 67.7308 81.915C68.5532 81.3011 68.9644 80.2895 68.9644 78.8943C68.9644 77.8129 68.6229 76.9898 67.9468 76.4177C67.2708 75.8526 66.295 75.5666 65.0196 75.5666H60.8587L59.4439 82.8358Z" fill="white"/>
<path d="M83.245 94.3327V71.918H100.85V75.5457H87.9286V81.1755H99.8815V84.8031H87.9286V90.705H101.498V94.3327H83.238H83.245Z" fill="white"/>
<path d="M113.542 75.5526V82.487H125V86.1147H113.542V94.3396H108.851V71.925H125.362V75.5526H113.542Z" fill="white"/>
<path d="M142.752 75.5526V94.3396H138.061V75.5526H130.833V71.925H150V75.5526H142.752Z" fill="white"/>
<path d="M110.252 33.8836C110.252 34.3301 110.245 34.7765 110.224 35.216C110.176 36.4648 110.064 37.6996 109.89 38.9134H104.07C104.286 37.7066 104.426 36.4718 104.488 35.216C104.502 34.7765 104.516 34.3301 104.516 33.8836C104.516 18.3405 91.9292 5.74144 76.4078 5.74144C67.0198 5.74144 58.705 10.3458 53.5963 17.4336H96.334L83.5238 39.4088L76.3869 39.4367L85.8795 23.0286H37.7822V27.1934L25.7457 20.2381L37.7822 13.2828V17.4406H46.8079C52.5857 7.03205 63.6744 0 76.4078 0C95.1003 0 110.252 15.1663 110.252 33.8836Z" fill="white"/>
<path d="M115.229 54.6588V50.494H105.91C100.105 60.7979 89.0716 67.7602 76.4079 67.7602C57.7084 67.7602 42.5565 52.5939 42.5565 33.8836C42.5565 33.479 42.5634 33.0743 42.5774 32.6767C42.6192 31.428 42.7307 30.1932 42.9119 28.9793H48.7176C48.5085 30.1862 48.3691 31.421 48.3203 32.6767C48.2994 33.0743 48.2924 33.479 48.2924 33.8836C48.2924 49.4197 60.8796 62.0188 76.4079 62.0188C85.7262 62.0188 93.9783 57.4772 99.0939 50.494H56.6839L69.487 28.5328L76.6239 28.5049L67.1313 44.913H115.229V40.7482L127.265 47.7035L115.229 54.6588Z" fill="white"/>
</svg>
